<svg xmlns="http://www.w3.org/2000/svg" viewBox="0 0 32 32" width="32" height="32">
  <defs>
    <linearGradient id="logoGrad" x1="0" y1="0" x2="1" y2="1">
      <stop offset="0%" stop-color="#6366f1"/>
      <stop offset="100%" stop-color="#ec4899"/>
    </linearGradient>
  </defs>
  <rect x="0" y="0" width="32" height="32" rx="8" ry="8" fill="url(#logoGrad)"/>
  <!-- filmstrip body -->
  <rect x="6" y="10" width="20" height="12" rx="2" ry="2" fill="#ffffff"/>
  <!-- top sprocket holes -->
  <rect x="8"  y="11.5" width="2" height="1.6" rx="0.4" fill="#6366f1"/>
  <rect x="12" y="11.5" width="2" height="1.6" rx="0.4" fill="#6366f1"/>
  <rect x="16" y="11.5" width="2" height="1.6" rx="0.4" fill="#6366f1"/>
  <rect x="20" y="11.5" width="2" height="1.6" rx="0.4" fill="#6366f1"/>
  <rect x="24" y="11.5" width="2" height="1.6" rx="0.4" fill="#6366f1"/>
  <!-- bottom sprocket holes -->
  <rect x="8"  y="18.9" width="2" height="1.6" rx="0.4" fill="#6366f1"/>
  <rect x="12" y="18.9" width="2" height="1.6" rx="0.4" fill="#6366f1"/>
  <rect x="16" y="18.9" width="2" height="1.6" rx="0.4" fill="#6366f1"/>
  <rect x="20" y="18.9" width="2" height="1.6" rx="0.4" fill="#6366f1"/>
  <rect x="24" y="18.9" width="2" height="1.6" rx="0.4" fill="#6366f1"/>
  <!-- frame window -->
  <rect x="11" y="14" width="10" height="4" rx="0.8" ry="0.8" fill="url(#logoGrad)"/>
</svg>